<svg width="169" height="30" viewBox="0 0 169 30" fill="none" xmlns="http://www.w3.org/2000/svg">
<path fill-rule="evenodd" clip-rule="evenodd" d="M127.559 0L121.095 6.46406H52.776V8.26866H119.29L113.895 13.664H33.8526C33.6956 10.9225 32.8256 8.35848 31.3784 6.18834V6.0656L31.1979 5.82498C29.9491 4.15987 28.4647 2.66582 26.6335 1.58864L26.0317 1.23464L13.6024 13.664H3.45444L15.1141 2.00439L13.838 0.728342L0 14.5664L13.838 28.4044L15.1141 27.1283L3.45434 15.4686H13.6023L26.0317 27.8981L26.6335 27.5441C28.4468 26.4775 30.0446 24.9867 31.2196 23.2775L31.3784 23.0466V22.9444C32.8256 20.7742 33.6956 18.2102 33.8526 15.4686H114.03L119.425 20.8641H52.776V22.6687H121.23L127.559 28.9976L134.019 22.5369L140.499 29.0162L147.112 22.4024L153.708 28.9976L168.206 14.4988L153.708 0L147.094 6.61377L140.499 0.0185546L134.038 6.47925L127.559 0ZM145.818 7.8898L140.499 2.57062L135.314 7.75528L140.633 13.0745L145.818 7.8898ZM141.909 14.3505L147.094 9.16584L152.445 14.5174L147.112 19.8503L141.909 14.6471L142.058 14.4988L141.909 14.3505ZM139.357 14.3505L139.209 14.4988L139.357 14.6471L134.019 19.9848L128.552 14.5174L134.038 9.03131L139.357 14.3505ZM140.633 15.9231L145.836 21.1264L140.499 26.4641L135.295 21.2609L140.633 15.9231ZM148.389 21.1264L154.998 14.5174L148.37 7.8898L153.708 2.55207L165.654 14.4988L153.708 26.4455L148.389 21.1264ZM132.762 7.75528L127.559 2.55207L121.876 8.23478V8.26866H121.842L115.612 14.4988L127.559 26.4455L132.743 21.2609L126 14.5174L132.762 7.75528ZM29.7354 6.98164C31.0683 8.89778 31.8845 11.1903 32.0447 13.664H16.1545L26.3044 3.51404C27.5409 4.34965 28.6143 5.43035 29.5738 6.67079V6.74935L29.7354 6.98164ZM26.3061 25.6204L16.1543 15.4686H32.0447C31.8845 17.9423 31.0683 20.2349 29.7354 22.1511L29.5738 22.3834V22.4805C28.6981 23.6934 27.5729 24.7762 26.3061 25.6204Z" fill="#DEA963"/>
</svg>
