<svg width="24" height="22" viewBox="0 0 24 22" fill="none" xmlns="http://www.w3.org/2000/svg">
<path d="M9.95278 11.3284C11.1081 11.9953 11.6858 12.3287 12.3203 12.3292C12.9547 12.3298 13.5329 11.9974 14.6895 11.3326L22.0617 7.09481C22.3945 6.90351 22.5997 6.5489 22.5997 6.16501C22.5997 5.78112 22.3945 5.42652 22.0617 5.23522L14.6868 0.995893C13.5315 0.331798 12.9539 -0.000247246 12.3201 1.38129e-07C11.6862 0.000247523 11.1089 0.332744 9.95411 0.997736L3.61416 4.64869C3.56716 4.67576 3.54367 4.68931 3.52177 4.70212C1.3561 5.96991 0.0180716 8.28447 0.000180916 10.7939C-7.39327e-09 10.8192 0 10.8463 0 10.9006C0 10.9547 -1.28952e-09 10.9818 0.000180553 11.0071C0.0180321 13.5137 1.35307 15.8261 3.51489 17.0949C3.53673 17.1077 3.56022 17.1213 3.60711 17.1484L7.57844 19.4413C9.89252 20.7774 11.0495 21.4454 12.3202 21.4459C13.5908 21.4463 14.7483 20.779 17.0632 19.4445L21.2555 17.0277C22.4147 16.3595 22.9943 16.0254 23.3125 15.4746C23.6308 14.9238 23.6308 14.2548 23.6308 12.9168V10.3321C23.6308 9.96096 23.4297 9.61891 23.1054 9.43828C22.7917 9.26352 22.4092 9.26611 22.0978 9.44511L13.5015 14.3865C12.9247 14.7181 12.6363 14.8838 12.3199 14.884C12.0034 14.884 11.7149 14.7184 11.138 14.3873L5.31979 11.0475C5.02835 10.8802 4.88262 10.7965 4.76557 10.7814C4.49873 10.747 4.24215 10.8965 4.1405 11.1456C4.09593 11.2549 4.09682 11.4229 4.09863 11.7589C4.09996 12.0063 4.10062 12.13 4.12374 12.2438C4.17554 12.4986 4.30957 12.7293 4.5053 12.9005C4.5927 12.9769 4.69981 13.0388 4.91411 13.1624L11.1347 16.7527C11.7132 17.0866 12.0024 17.2535 12.32 17.2536C12.6376 17.2537 12.9269 17.0869 13.5055 16.7534L21.1301 12.3582C21.3278 12.2443 21.4266 12.1873 21.5007 12.2301C21.5748 12.273 21.5748 12.387 21.5748 12.6152V13.7875C21.5748 14.122 21.5748 14.2893 21.4952 14.427C21.4157 14.5647 21.2708 14.6482 20.981 14.8153L14.6922 18.4404C13.5344 19.1078 12.9555 19.4414 12.3201 19.4411C11.6847 19.4409 11.1061 19.1067 9.94894 18.4382L4.06521 15.0394C4.04653 15.0286 4.03719 15.0232 4.02847 15.0181C2.79481 14.2972 2.03359 12.9784 2.02645 11.5496C2.0264 11.5395 2.0264 11.5287 2.0264 11.5071V10.431C2.0264 9.64217 2.4465 8.91309 3.12893 8.51753C3.73195 8.16802 4.47576 8.16732 5.07942 8.51572L9.95278 11.3284Z" fill="white"/>
</svg>
