<svg width="144" height="144" viewBox="0 0 144 144" fill="none" xmlns="http://www.w3.org/2000/svg">
<path d="M143 72C143 111.212 111.212 143 72 143C32.7878 143 1 111.212 1 72C1 32.7878 32.7878 1 72 1C111.212 1 143 32.7878 143 72Z" fill="#101825" fill-opacity="0.8" stroke="url(#paint0_linear_2_5)" stroke-width="2"/>
<path d="M61 1.80005V16.5001" stroke="#DBA661" stroke-width="1.7819" stroke-miterlimit="10"/>
<path d="M82.6 1.80005V16.5001" stroke="#DBA661" stroke-width="1.7819" stroke-miterlimit="10"/>
<path d="M72 0V25.8" stroke="#DBA661" stroke-width="1.7819" stroke-miterlimit="10"/>
<path d="M56 50.6661V93.3328C55.9999 93.8073 56.1263 94.2732 56.3664 94.6825C56.6064 95.0918 56.9512 95.4296 57.3654 95.6611C57.7796 95.8927 58.248 96.0095 58.7224 95.9996C59.1967 95.9897 59.6599 95.8534 60.064 95.6048L94.7307 74.2714C95.1189 74.0329 95.4396 73.6988 95.662 73.301C95.8844 72.9033 96.0012 72.4552 96.0012 71.9994C96.0012 71.5437 95.8844 71.0956 95.662 70.6979C95.4396 70.3001 95.1189 69.966 94.7307 69.7274L60.064 48.3941C59.6599 48.1455 59.1967 48.0092 58.7224 47.9993C58.248 47.9894 57.7796 48.1062 57.3654 48.3377C56.9512 48.5693 56.6064 48.9071 56.3664 49.3164C56.1263 49.7257 55.9999 50.1916 56 50.6661Z" fill="#EDD1AB"/>
<defs>
<linearGradient id="paint0_linear_2_5" x1="72" y1="0" x2="72" y2="144" gradientUnits="userSpaceOnUse">
<stop stop-color="#DEA963"/>
<stop offset="1" stop-color="#845021"/>
</linearGradient>
</defs>
</svg>
