<svg width="359" height="78" viewBox="0 0 359 78" fill="none" xmlns="http://www.w3.org/2000/svg">
<path d="M143.4 39L23.4 39" stroke="url(#paint0_linear_5_26)" stroke-width="1.7819" stroke-miterlimit="10"/>
<path d="M103.4 13H314.526C330.927 13 344.4 24.5555 344.4 39C344.4 53.2745 331.123 65 314.526 65H103.4" fill="url(#paint1_linear_5_26)"/>
<path d="M103.4 13H314.526C330.927 13 344.4 24.5555 344.4 39C344.4 53.2745 331.123 65 314.526 65H103.4" stroke="url(#paint2_linear_5_26)" stroke-width="1.7819" stroke-miterlimit="10"/>
<path d="M103.4 1H314.972C338.434 1 357.4 17.9862 357.4 39C357.4 60.0139 338.434 77 314.972 77H103.4" stroke="url(#paint3_linear_5_26)" stroke-width="1.7819" stroke-miterlimit="10"/>
<path d="M12.0996 18.1C23.6996 18.1 32.9996 27.5 32.9996 39C32.9996 50.5 23.5996 59.9 12.0996 59.9" stroke="#7C674B" stroke-width="1.7819" stroke-miterlimit="10"/>
<path d="M12.2 50.5C6.01445 50.5 1.00003 45.4856 1.00003 39.3C1.00003 33.1144 6.01445 28.1 12.2 28.1C18.3856 28.1 23.4 33.1144 23.4 39.3C23.4 45.4856 18.3856 50.5 12.2 50.5Z" stroke="#7C674B" stroke-width="1.7819" stroke-miterlimit="10"/>
<defs>
<linearGradient id="paint0_linear_5_26" x1="140.652" y1="38.5" x2="23.4" y2="38.5" gradientUnits="userSpaceOnUse">
<stop stop-color="#7C674B" stop-opacity="0"/>
<stop offset="1" stop-color="#7C674B"/>
</linearGradient>
<linearGradient id="paint1_linear_5_26" x1="344.4" y1="39" x2="130.955" y2="39" gradientUnits="userSpaceOnUse">
<stop stop-color="white"/>
<stop offset="1" stop-color="white" stop-opacity="0"/>
</linearGradient>
<linearGradient id="paint2_linear_5_26" x1="344.4" y1="39" x2="130.955" y2="39" gradientUnits="userSpaceOnUse">
<stop offset="0.63" stop-color="#7C674B"/>
<stop offset="1" stop-color="#7C674B" stop-opacity="0"/>
</linearGradient>
<linearGradient id="paint3_linear_5_26" x1="357.4" y1="39" x2="103.4" y2="39" gradientUnits="userSpaceOnUse">
<stop offset="0.63" stop-color="#7C674B"/>
<stop offset="1" stop-color="#7C674B" stop-opacity="0"/>
</linearGradient>
</defs>
</svg>
