<svg width="290" height="137" viewBox="0 0 290 137" fill="none" xmlns="http://www.w3.org/2000/svg">
<path d="M289.5 71.9999H43.8741C27.4726 71.9999 14 83.5555 14 97.9999C14 112.274 27.2774 124 43.8741 124H289.5" fill="url(#paint0_linear_1_4)"/>
<path d="M289.5 71.9999H43.8741C27.4726 71.9999 14 83.5555 14 97.9999C14 112.274 27.2774 124 43.8741 124H289.5" stroke="url(#paint1_linear_1_4)" stroke-width="1.7819" stroke-miterlimit="10"/>
<path d="M258 59.9999H43.4281C19.9655 59.9999 1 76.9861 1 98C1 119.014 19.9655 136 43.4281 136H258" stroke="url(#paint2_linear_1_4)" stroke-width="1.7819" stroke-miterlimit="10"/>
<path d="M145 59.0001L145 23.0001" stroke="#7C674B" stroke-width="1.7819" stroke-miterlimit="10"/>
<path d="M124 12.0996C124 23.6996 133.4 32.9996 144.9 32.9996C156.4 32.9996 165.8 23.5996 165.8 12.0996" stroke="#7C674B" stroke-width="1.7819" stroke-miterlimit="10"/>
<path d="M156.4 12.2C156.4 6.01442 151.386 0.999999 145.2 1C139.014 1 134 6.01442 134 12.2C134 18.3856 139.014 23.4 145.2 23.4C151.386 23.4 156.4 18.3856 156.4 12.2Z" stroke="#7C674B" stroke-width="1.7819" stroke-miterlimit="10"/>
<defs>
<linearGradient id="paint0_linear_1_4" x1="14" y1="97.9999" x2="258" y2="97.9999" gradientUnits="userSpaceOnUse">
<stop stop-color="white"/>
<stop offset="1" stop-color="white" stop-opacity="0"/>
</linearGradient>
<linearGradient id="paint1_linear_1_4" x1="14" y1="97.9999" x2="258" y2="97.9999" gradientUnits="userSpaceOnUse">
<stop offset="0.63" stop-color="#7C674B"/>
<stop offset="1" stop-color="#7C674B" stop-opacity="0"/>
</linearGradient>
<linearGradient id="paint2_linear_1_4" x1="1" y1="97.9999" x2="258" y2="97.9999" gradientUnits="userSpaceOnUse">
<stop offset="0.63" stop-color="#7C674B"/>
<stop offset="1" stop-color="#7C674B" stop-opacity="0"/>
</linearGradient>
</defs>
</svg>
