<svg width="48" height="48" viewBox="0 0 48 48" fill="none" xmlns="http://www.w3.org/2000/svg">
<g clip-path="url(#clip0_1_15)">
<path d="M41.2149 47.8861H6.78508C3.05329 47.8861 0 44.8401 0 41.1173V6.76881C0 3.04597 3.05329 0 6.78508 0H41.2149C44.9467 0 48 3.04597 48 6.76881V41.1173C48 44.8401 44.9467 47.8861 41.2149 47.8861Z" fill="white"/>
<path d="M23.685 8.00015C14.9819 8.041 7.96222 15.1248 8.00015 23.825C8.041 32.5252 15.1248 39.5478 23.825 39.5098C32.5252 39.469 39.5478 32.3852 39.5098 23.685C39.469 14.9819 32.3852 7.96222 23.685 8.00015ZM21.6894 22.9818C20.1343 22.9818 18.871 21.7215 18.871 20.1664C18.871 18.6113 20.1314 17.3509 21.6894 17.3509C23.2444 17.3509 24.5048 18.6113 24.5048 20.1664C24.5048 21.7215 23.2444 22.9818 21.6894 22.9818ZM23.9359 26.0278L23.9505 26.0103L23.9651 25.9928C24.7703 26.5121 25.6864 26.693 26.6025 26.7222C27.5216 26.7455 28.4552 26.6784 29.3771 26.4917C30.2962 26.302 31.2006 26.019 32.073 25.6573C32.5631 25.4559 33.0504 25.2342 33.5143 24.9745C33.5172 24.9716 33.5201 24.9716 33.523 24.9687C33.8118 24.7937 34.0948 24.6128 34.372 24.4231C34.4333 24.3794 34.4916 24.3356 34.5471 24.2889L34.5529 24.2977L34.5762 24.3268C33.8673 24.9716 33.0241 25.4501 32.1663 25.8732C31.2998 26.2816 30.3954 26.6171 29.4618 26.8593C28.5311 27.0985 27.5595 27.2823 26.5763 27.1919C25.6077 27.1014 24.5865 26.763 23.9359 26.0278ZM31.1656 22.9818C31.1656 22.6434 31.4369 22.3721 31.7725 22.3692C32.1109 22.3692 32.3822 22.6405 32.3852 22.976C32.3852 23.3115 32.1138 23.5887 31.7783 23.5887C31.4428 23.5916 31.1656 23.3203 31.1656 22.9818ZM26.34 38.0948C25.7302 33.8293 29.453 29.6543 31.5536 27.5187C32.0292 27.0343 32.7674 26.3662 33.453 25.6573C36.178 23.1102 36.7207 20.0643 31.1423 18.5413C30.0861 18.235 28.9891 17.8003 27.8804 17.3626C27.8454 17.2605 27.8046 17.1642 27.7608 17.0738C27.6324 16.855 27.4107 16.6011 27.0723 16.3152C26.3458 15.685 24.9862 15.7025 23.8104 15.9797C22.5092 15.6733 21.2284 15.5654 19.9943 15.8601C14.5997 17.3451 13.7332 19.9768 13.5231 23.1481C13.2372 26.5734 13.0709 29.1262 11.7726 32.0438C10.1533 29.7068 9.19927 26.8768 9.1876 23.8192C9.15259 15.7755 15.6442 9.22261 23.6908 9.1876C31.7375 9.15259 38.2874 15.6442 38.3253 23.6908C38.3545 30.8768 33.1787 36.8724 26.34 38.0948Z" fill="black"/>
<path d="M23.6704 20.1927C23.6704 21.2868 22.7835 22.1737 21.6894 22.1737C20.5953 22.1737 19.7083 21.2868 19.7083 20.1927C19.7083 19.0986 20.5953 18.2116 21.6894 18.2116C22.7835 18.2116 23.6704 19.0986 23.6704 20.1927Z" fill="black"/>
</g>
<defs>
<clipPath id="clip0_1_15">
<rect width="48" height="48" fill="white"/>
</clipPath>
</defs>
</svg>
