<svg width="48" height="48" viewBox="0 0 48 48" fill="none" xmlns="http://www.w3.org/2000/svg">
<g clip-path="url(#clip0_1_3)">
<path d="M41.2149 47.8861H6.78508C3.05329 47.8861 0 44.8401 0 41.1173V6.76881C0 3.04597 3.05329 0 6.78508 0H41.2149C44.9467 0 48 3.04597 48 6.76881V41.1173C48 44.8401 44.9467 47.8861 41.2149 47.8861Z" fill="white"/>
<path d="M37.8268 13.0088C37.7251 12.7208 37.6112 12.6403 37.4241 12.5695C37.0173 12.4166 36.3307 12.6452 36.3307 12.6452C36.3307 12.6452 12.002 21.3682 10.6149 22.3371C10.3139 22.5446 10.2162 22.6674 10.165 22.8065C9.92335 23.4964 10.6743 23.7966 10.6743 23.7966L16.9468 25.8362C16.9468 25.8362 17.1795 25.8696 17.2641 25.8191C18.6895 24.9177 31.6153 16.7781 32.3613 16.5039C32.4793 16.4697 32.5647 16.5071 32.5436 16.5877C32.2466 17.6331 21.017 27.587 21.017 27.587C21.017 27.587 20.9747 27.6383 20.9495 27.7009L20.9365 27.6928L20.3507 33.8994C20.3507 33.8994 20.105 35.7991 22.0137 33.8994C23.0703 32.8521 24.1695 31.8487 25.3086 30.8917C27.4629 32.3764 29.7872 34.0182 30.7879 34.8765C31.2923 35.3077 31.7121 35.3809 32.0595 35.3671C33.0097 35.3337 33.2774 34.2883 33.2774 34.2883C33.2774 34.2883 37.7088 16.486 37.8569 14.1039C37.8699 13.872 37.8911 13.724 37.8951 13.5629C37.887 13.3383 37.865 13.1146 37.8268 13.0088Z" fill="black"/>
</g>
<defs>
<clipPath id="clip0_1_3">
<rect width="48" height="48" fill="white"/>
</clipPath>
</defs>
</svg>
