<svg width="169" height="30" viewBox="0 0 169 30" fill="none" xmlns="http://www.w3.org/2000/svg">
<path fill-rule="evenodd" clip-rule="evenodd" d="M40.6477 0L47.1118 6.46406H115.43V8.26866H48.9164L54.3117 13.664H134.354C134.511 10.9225 135.381 8.35848 136.828 6.18834V6.0656L137.009 5.82498C138.257 4.15987 139.742 2.66582 141.573 1.58864L142.175 1.23464L154.604 13.664H164.752L153.092 2.00439L154.368 0.728342L168.206 14.5664L154.368 28.4044L153.092 27.1283L164.752 15.4686H154.604L142.175 27.8981L141.573 27.5441C139.76 26.4775 138.162 24.9867 136.987 23.2775L136.828 23.0466V22.9444C135.381 20.7742 134.511 18.2102 134.354 15.4686H54.1767L48.7812 20.8641H115.43V22.6687H46.9766L40.6477 28.9976L34.187 22.5369L27.7078 29.0162L21.094 22.4024L14.4988 28.9976L0 14.4988L14.4988 0L21.1126 6.61377L27.7078 0.0185546L34.1685 6.47925L40.6477 0ZM22.3886 7.8898L27.7078 2.57062L32.8924 7.75528L27.5733 13.0745L22.3886 7.8898ZM26.2972 14.3505L21.1126 9.16584L15.761 14.5174L21.094 19.8503L26.2972 14.6471L26.1489 14.4988L26.2972 14.3505ZM28.8493 14.3505L28.9976 14.4988L28.8493 14.6471L34.187 19.9848L39.6545 14.5174L34.1685 9.03131L28.8493 14.3505ZM27.5733 15.9231L22.37 21.1264L27.7078 26.4641L32.911 21.2609L27.5733 15.9231ZM19.818 21.1264L13.209 14.5174L19.8365 7.8898L14.4988 2.55207L2.55206 14.4988L14.4988 26.4455L19.818 21.1264ZM35.4445 7.75528L40.6477 2.55207L46.3304 8.23478V8.26866H46.3643L52.5945 14.4988L40.6477 26.4455L35.4631 21.2609L42.2066 14.5174L35.4445 7.75528ZM138.471 6.98164C137.138 8.89778 136.322 11.1903 136.162 13.664H152.052L141.902 3.51404C140.666 4.34965 139.592 5.43035 138.633 6.67079V6.74935L138.471 6.98164ZM141.9 25.6204L152.052 15.4686H136.162C136.322 17.9423 137.138 20.2349 138.471 22.1511L138.633 22.3834V22.4805C139.508 23.6934 140.634 24.7762 141.9 25.6204Z" fill="#DEA963"/>
</svg>
