<svg width="48" height="48" viewBox="0 0 48 48" fill="none" xmlns="http://www.w3.org/2000/svg">
<g clip-path="url(#clip0_1_12)">
<path d="M41.2149 47.8861H6.78508C3.05329 47.8861 0 44.8401 0 41.1173V6.76881C0 3.04597 3.05329 0 6.78508 0H41.2149C44.9467 0 48 3.04597 48 6.76881V41.1173C48 44.8401 44.9467 47.8861 41.2149 47.8861Z" fill="white"/>
<path fill-rule="evenodd" clip-rule="evenodd" d="M20.3961 37.3766C18.6653 36.4856 17.2493 35.7317 17.2496 35.7011C17.2504 35.6219 21.4035 33.5435 21.5509 33.5485C21.618 33.5508 22.1044 33.772 22.6318 34.0402L23.5909 34.5277L24.6384 33.9956L25.6858 33.4635L27.4011 34.2251C29.9858 35.3728 30.2542 35.4986 30.2121 35.5409C30.1563 35.5969 29.2292 36.0891 26.714 37.3976C25.4985 38.03 24.3187 38.6501 24.0922 38.7755C23.8657 38.901 23.6495 39.0019 23.6118 39C23.574 38.998 22.1269 38.2675 20.3961 37.3766ZM12.805 33.4921L11.0033 32.5724V28.5363C11.0033 26.3164 11.0269 24.5002 11.0559 24.5002C11.0848 24.5002 11.9713 24.8799 13.0258 25.344L14.943 26.1878V30.4422L15.8799 29.9378C16.6018 29.5495 17.3242 29.1619 18.047 28.7752L19.2772 28.117L19.8246 28.3616C20.168 28.5152 20.5106 28.6704 20.8525 28.827C21.1168 28.9486 21.7654 29.2373 22.2939 29.4687C22.8224 29.7001 23.3116 29.9329 23.381 29.986C23.4731 30.0564 22.3494 30.67 19.2248 32.2556C16.8696 33.4508 14.867 34.4249 14.7746 34.4202C14.6823 34.4155 13.7959 33.9979 12.805 33.4921ZM30.5368 33.2338C29.3098 32.6864 28.3049 32.2167 28.3038 32.1899C28.3027 32.1631 28.9715 31.7702 29.7901 31.3168C30.6086 30.8633 31.2783 30.468 31.2783 30.4382C31.2783 30.4085 30.554 30.0617 29.6688 29.6674C28.7835 29.2731 26.5459 28.2746 24.6962 27.4483L18.4983 24.6798C16.9393 23.9834 15.5339 23.3556 15.3754 23.2847C12.1909 21.8601 11.3156 21.4648 11.1954 21.397C11.0746 21.3287 11.0472 20.9318 11.0257 18.9399L11 16.5641L12.6112 15.7529L14.2223 14.9417L16.4564 15.9381C17.6852 16.486 18.6905 16.963 18.6905 16.9982C18.6905 17.0332 18.4634 17.1794 18.186 17.3232C17.9085 17.467 17.3356 17.7853 16.9128 18.0306C16.49 18.2761 16.0685 18.5012 15.9759 18.5311C15.8834 18.5608 15.8091 18.6129 15.8106 18.6469C15.8121 18.6808 16.7959 19.1426 17.9966 19.6731C20.3288 20.7036 22.1136 21.4977 25.9453 23.21C27.6587 23.9755 29.3723 24.7406 31.0862 25.5052C32.5924 26.177 34.3436 26.9616 34.9778 27.2488L36.1309 27.7709L36.1566 30.1737L36.1823 32.5764L34.5482 33.4053C33.6494 33.8611 32.8811 34.2329 32.8409 34.2316C32.8006 34.2303 31.7638 33.7814 30.5368 33.2338ZM35.6931 24.5655C35.4523 24.4492 34.9767 24.2316 34.6361 24.0819C34.2956 23.9322 33.6494 23.6441 33.2002 23.4415L32.3834 23.0734L32.3647 20.9639C32.3545 19.8038 32.3112 18.8597 32.2687 18.8658C32.172 18.88 30.6412 19.6558 29.1024 20.4706C27.9918 21.0586 27.922 21.082 27.661 20.9543C27.5102 20.8804 26.6084 20.4808 25.6571 20.066C24.7057 19.6513 23.8964 19.2849 23.8583 19.2518C23.8204 19.2186 25.735 18.1932 28.1131 16.9729L32.4369 14.7541L34.284 15.6983C35.2997 16.2175 36.1635 16.6912 36.2033 16.7507C36.2928 16.8847 36.2851 24.7952 36.1955 24.7845C36.16 24.7803 35.9339 24.6817 35.6931 24.5655ZM25.4649 15.2805C25.1445 15.1444 24.8242 15.0081 24.504 14.8716C23.537 14.4582 23.7265 14.4445 22.5761 15.0104C21.8099 15.3873 21.4796 15.5036 21.3363 15.4472C21.2287 15.4049 20.3033 14.9934 19.2795 14.5329C18.2559 14.0724 17.3828 13.6956 17.3394 13.6956C16.9099 13.6956 17.6239 13.274 20.3792 11.9006L23.6105 10.29L24.9701 10.9533C25.7179 11.3181 27.2261 12.0486 28.3218 12.5767C29.4175 13.1048 30.3003 13.5507 30.2838 13.5675C30.2672 13.5842 29.3491 14.0501 28.2436 14.6027L26.2336 15.6073L25.4649 15.2805Z" fill="black"/>
</g>
<defs>
<clipPath id="clip0_1_12">
<rect width="48" height="48" fill="white"/>
</clipPath>
</defs>
</svg>
