<svg width="359" height="78" viewBox="0 0 359 78" fill="none" xmlns="http://www.w3.org/2000/svg">
<path d="M215 39L335 39" stroke="url(#paint0_linear_4_14)" stroke-width="1.7819" stroke-miterlimit="10"/>
<path d="M289.5 13H43.8741C27.4726 13 14 24.5555 14 39C14 53.2745 27.2774 65 43.8741 65H289.5" fill="url(#paint1_linear_4_14)"/>
<path d="M289.5 13H43.8741C27.4726 13 14 24.5555 14 39C14 53.2745 27.2774 65 43.8741 65H289.5" stroke="url(#paint2_linear_4_14)" stroke-width="1.7819" stroke-miterlimit="10"/>
<path d="M258 1H43.4281C19.9655 1 1 17.9862 1 39C1 60.0139 19.9655 77 43.4281 77H258" stroke="url(#paint3_linear_4_14)" stroke-width="1.7819" stroke-miterlimit="10"/>
<path d="M346.3 18.1C334.7 18.1 325.4 27.5 325.4 39C325.4 50.5 334.8 59.9 346.3 59.9" stroke="#7C674B" stroke-width="1.7819" stroke-miterlimit="10"/>
<path d="M346.2 50.5C352.386 50.5 357.4 45.4856 357.4 39.3C357.4 33.1144 352.386 28.1 346.2 28.1C340.014 28.1 335 33.1144 335 39.3C335 45.4856 340.014 50.5 346.2 50.5Z" stroke="#7C674B" stroke-width="1.7819" stroke-miterlimit="10"/>
<defs>
<linearGradient id="paint0_linear_4_14" x1="217.748" y1="39.5" x2="335" y2="39.5" gradientUnits="userSpaceOnUse">
<stop stop-color="#7C674B" stop-opacity="0"/>
<stop offset="1" stop-color="#7C674B"/>
</linearGradient>
<linearGradient id="paint1_linear_4_14" x1="14" y1="39" x2="258" y2="39" gradientUnits="userSpaceOnUse">
<stop stop-color="white"/>
<stop offset="1" stop-color="white" stop-opacity="0"/>
</linearGradient>
<linearGradient id="paint2_linear_4_14" x1="14" y1="39" x2="258" y2="39" gradientUnits="userSpaceOnUse">
<stop offset="0.63" stop-color="#7C674B"/>
<stop offset="1" stop-color="#7C674B" stop-opacity="0"/>
</linearGradient>
<linearGradient id="paint3_linear_4_14" x1="1" y1="39" x2="258" y2="39" gradientUnits="userSpaceOnUse">
<stop offset="0.63" stop-color="#7C674B"/>
<stop offset="1" stop-color="#7C674B" stop-opacity="0"/>
</linearGradient>
</defs>
</svg>
