<svg width="48" height="48" viewBox="0 0 48 48" fill="none" xmlns="http://www.w3.org/2000/svg">
<g clip-path="url(#clip0_1_22)">
<path d="M41.2149 47.882H6.78508C3.05329 47.882 0 44.8361 0 41.1132V6.76881C0 3.04597 3.05329 0 6.78508 0H41.2149C44.9467 0 48 3.04597 48 6.76881V41.1173C48 44.8353 44.9467 47.882 41.2149 47.882Z" fill="white"/>
<path d="M37.3864 19.5855V31.2806L24.4448 38.7911L11.4979 31.2806V16.2597L24.45 8.73882L34.3958 14.5157L35.899 13.6463L24.45 7L10 15.3851V32.15L24.45 40.5351L38.9 32.15V18.7161L37.3864 19.5855Z" fill="black"/>
<path d="M20.8257 31.2911H18.6627V23.9902H25.8798C26.5607 23.9849 27.2154 23.7073 27.6972 23.215C28.179 22.728 28.4461 22.068 28.4514 21.3819C28.4566 21.0415 28.3885 20.7063 28.2576 20.3921C28.1267 20.0778 27.9329 19.795 27.692 19.5593C27.4563 19.3184 27.1735 19.1246 26.8644 18.9937C26.5554 18.8627 26.2202 18.7947 25.8798 18.7999H18.6627V16.5792H25.8851C27.1473 16.5845 28.3623 17.0977 29.2527 17.9933C30.1483 18.8942 30.6511 20.1093 30.6616 21.3819C30.6668 22.3561 30.3735 23.3041 29.8183 24.1002C29.3051 24.8596 28.5823 25.4566 27.7391 25.8128C26.9011 26.0799 26.0317 26.2108 25.1571 26.2056H20.8257V31.2911Z" fill="black"/>
<path d="M30.6092 31.1078H28.0848L26.1364 27.693C26.9063 27.6459 27.6658 27.4888 28.3938 27.2269L30.6092 31.1078Z" fill="black"/>
<path d="M35.878 17.1554L37.3707 17.9881L38.8633 17.1554V15.3904L37.3707 14.521L35.878 15.3904V17.1554Z" fill="black"/>
</g>
<defs>
<clipPath id="clip0_1_22">
<rect width="48" height="48" fill="white"/>
</clipPath>
</defs>
</svg>
