<svg width="48" height="48" viewBox="0 0 48 48" fill="none" xmlns="http://www.w3.org/2000/svg">
<g clip-path="url(#clip0_1_6)">
<path d="M41.2149 47.8861H6.78508C3.05329 47.8861 0 44.8401 0 41.1173V6.76881C0 3.04597 3.05329 0 6.78508 0H41.2149C44.9467 0 48 3.04597 48 6.76881V41.1173C48 44.8401 44.9467 47.8861 41.2149 47.8861Z" fill="white"/>
<path d="M18.6381 35.6599C29.5447 35.6599 35.5073 26.644 35.5073 18.8306C35.5073 18.5719 35.5032 18.3181 35.491 18.0642C36.6507 17.2263 37.6527 16.1895 38.4507 15.002C37.3858 15.4714 36.246 15.7887 35.0452 15.9327C36.2822 15.1946 37.2091 14.0324 37.6535 12.6622C36.4895 13.3524 35.2157 13.8376 33.8875 14.0965C33.3324 13.5048 32.6616 13.0335 31.9168 12.7117C31.172 12.39 30.3691 12.2247 29.5577 12.2261C26.284 12.2261 23.6293 14.8751 23.6293 18.1407C23.6293 18.6061 23.6806 19.0543 23.7823 19.4904C18.8545 19.2447 14.4865 16.8886 11.5602 13.309C10.8022 14.6117 10.5702 16.1546 10.9114 17.6226C11.2527 19.0907 12.1415 20.373 13.3964 21.2078C12.4551 21.1797 11.5343 20.9258 10.7116 20.4675V20.544C10.7116 23.4077 12.7561 25.802 15.4709 26.3447C14.5968 26.5821 13.6798 26.6166 12.7903 26.4455C13.1703 27.6219 13.9083 28.6502 14.9011 29.3868C15.894 30.1234 17.0921 30.5315 18.3282 30.554C16.2255 32.1984 13.6315 33.0891 10.9622 33.0834C10.483 33.0834 10.0128 33.0581 9.54661 33.0028C12.26 34.7412 15.4157 35.6635 18.6381 35.6599Z" fill="black"/>
</g>
<defs>
<clipPath id="clip0_1_6">
<rect width="48" height="48" fill="white"/>
</clipPath>
</defs>
</svg>
