<svg width="48" height="48" viewBox="0 0 48 48" fill="none" xmlns="http://www.w3.org/2000/svg">
<g clip-path="url(#clip0_1_9)">
<path d="M41.2149 47.8861H6.78508C3.05329 47.8861 0 44.8401 0 41.1173V6.76881C0 3.04597 3.05329 0 6.78508 0H41.2149C44.9467 0 48 3.04597 48 6.76881V41.1173C48 44.8401 44.9467 47.8861 41.2149 47.8861Z" fill="white"/>
<path d="M38.1315 16.8594C37.9626 16.2355 37.6328 15.6668 37.1753 15.2103C36.7177 14.7537 36.1483 14.4252 35.5241 14.2576C33.2258 13.6434 24.0024 13.6434 24.0024 13.6434C24.0024 13.6434 14.7791 13.6434 12.48 14.2576C11.8558 14.4253 11.2864 14.7538 10.8289 15.2104C10.3713 15.6669 10.0416 16.2355 9.87254 16.8594C9.25749 19.152 9.25749 23.9414 9.25749 23.9414C9.25749 23.9414 9.25749 28.73 9.87254 31.0226C10.0415 31.6467 10.3712 32.2154 10.8287 32.6721C11.2863 33.1288 11.8557 33.4575 12.48 33.6252C14.7791 34.2386 24.0024 34.2386 24.0024 34.2386C24.0024 34.2386 33.2258 34.2386 35.5241 33.6252C36.1486 33.4577 36.7182 33.1291 37.1759 32.6724C37.6336 32.2157 37.9634 31.6468 38.1323 31.0226C38.7466 28.73 38.7466 23.9414 38.7466 23.9414C38.7466 23.9414 38.7458 19.1561 38.1315 16.8594ZM21.0517 28.3574V19.5287L28.7146 23.9414L21.0517 28.3574Z" fill="black"/>
</g>
<defs>
<clipPath id="clip0_1_9">
<rect width="48" height="48" fill="white"/>
</clipPath>
</defs>
</svg>
